<svg width="30" height="22" viewBox="0 0 30 22" fill="none" xmlns="http://www.w3.org/2000/svg">
<path d="M29.9999 13.0001C29.9999 13.2653 29.8946 13.5197 29.707 13.7072C29.5195 13.8948 29.2651 14.0001 28.9999 14.0001H26.9999V16.0001C26.9999 16.2653 26.8946 16.5197 26.707 16.7072C26.5195 16.8948 26.2651 17.0001 25.9999 17.0001C25.7347 17.0001 25.4803 16.8948 25.2928 16.7072C25.1053 16.5197 24.9999 16.2653 24.9999 16.0001V14.0001H22.9999C22.7347 14.0001 22.4803 13.8948 22.2928 13.7072C22.1053 13.5197 21.9999 13.2653 21.9999 13.0001C21.9999 12.7349 22.1053 12.4805 22.2928 12.293C22.4803 12.1055 22.7347 12.0001 22.9999 12.0001H24.9999V10.0001C24.9999 9.7349 25.1053 9.48055 25.2928 9.29301C25.4803 9.10547 25.7347 9.00012 25.9999 9.00012C26.2651 9.00012 26.5195 9.10547 26.707 9.29301C26.8946 9.48055 26.9999 9.7349 26.9999 10.0001V12.0001H28.9999C29.2651 12.0001 29.5195 12.1055 29.707 12.293C29.8946 12.4805 29.9999 12.7349 29.9999 13.0001ZM22.7662 20.3564C22.9369 20.5596 23.0199 20.8223 22.9969 21.0867C22.974 21.3512 22.8469 21.5956 22.6437 21.7664C22.4404 21.9371 22.1777 22.0201 21.9133 21.9971C21.6489 21.9742 21.4044 21.8471 21.2337 21.6439C18.7187 18.6489 15.2612 17.0001 11.4999 17.0001C7.73867 17.0001 4.28117 18.6489 1.76617 21.6439C1.59544 21.8469 1.35103 21.9738 1.08672 21.9967C0.822414 22.0196 0.559851 21.9365 0.356794 21.7657C0.153738 21.595 0.026822 21.3506 0.00396598 21.0863C-0.01889 20.822 0.0641863 20.5594 0.234919 20.3564C2.10242 18.1339 4.42492 16.5551 7.00617 15.7101C5.43855 14.7337 4.23157 13.2734 3.56784 11.55C2.9041 9.82654 2.81973 7.93383 3.32748 6.15819C3.83523 4.38254 4.90748 2.82057 6.38201 1.70859C7.85653 0.596607 9.6531 -0.00488281 11.4999 -0.00488281C13.3467 -0.00488281 15.1433 0.596607 16.6178 1.70859C18.0924 2.82057 19.1646 4.38254 19.6724 6.15819C20.1801 7.93383 20.0957 9.82654 19.432 11.55C18.7683 13.2734 17.5613 14.7337 15.9937 15.7101C18.5749 16.5551 20.8974 18.1339 22.7662 20.3564ZM11.4999 15.0001C12.7855 15.0001 14.0422 14.6189 15.1111 13.9047C16.18 13.1904 17.0132 12.1753 17.5051 10.9876C17.9971 9.79984 18.1258 8.49291 17.875 7.23203C17.6242 5.97115 17.0052 4.81296 16.0961 3.90392C15.1871 2.99488 14.0289 2.37582 12.768 2.12501C11.5071 1.87421 10.2002 2.00293 9.01248 2.4949C7.82476 2.98687 6.8096 3.81999 6.09537 4.88891C5.38114 5.95783 4.99992 7.21454 4.99992 8.50012C5.0019 10.2234 5.68736 11.8756 6.90592 13.0941C8.12447 14.3127 9.77662 14.9981 11.4999 15.0001Z" fill="white"/>
</svg>
