<svg width="19" height="19" viewBox="0 0 19 19" fill="none" xmlns="http://www.w3.org/2000/svg">
<path d="M18.3103 4.87842L14.1216 0.688729C13.9823 0.549404 13.8169 0.438884 13.6349 0.363481C13.4529 0.288078 13.2578 0.249268 13.0608 0.249268C12.8638 0.249268 12.6687 0.288078 12.4867 0.363481C12.3047 0.438884 12.1393 0.549404 12 0.688729L0.439695 12.25C0.299801 12.3888 0.188889 12.554 0.113407 12.736C0.0379245 12.918 -0.000621974 13.1132 7.58902e-06 13.3103V17.5C7.58902e-06 17.8978 0.158043 18.2793 0.439347 18.5606C0.720652 18.8419 1.10218 19 1.50001 19H5.6897C5.88675 19.0006 6.08197 18.9621 6.26399 18.8866C6.44602 18.8111 6.61122 18.7002 6.75001 18.5603L18.3103 6.99998C18.4496 6.86069 18.5602 6.69531 18.6356 6.5133C18.711 6.33129 18.7498 6.13621 18.7498 5.9392C18.7498 5.74219 18.711 5.5471 18.6356 5.36509C18.5602 5.18308 18.4496 5.01771 18.3103 4.87842ZM5.6897 17.5H1.50001V13.3103L9.75001 5.06029L13.9397 9.24998L5.6897 17.5ZM15 8.18873L10.8103 3.99998L13.0603 1.74998L17.25 5.93873L15 8.18873Z" fill="white"/>
</svg>
