<svg width="26" height="26" viewBox="0 0 26 26" fill="none" xmlns="http://www.w3.org/2000/svg">
<path d="M22.5 16C22.5 16.2967 22.412 16.5867 22.2472 16.8334C22.0824 17.08 21.8481 17.2723 21.574 17.3858C21.2999 17.4993 20.9983 17.5291 20.7074 17.4712C20.4164 17.4133 20.1491 17.2704 19.9393 17.0607C19.7296 16.8509 19.5867 16.5836 19.5288 16.2926C19.4709 16.0017 19.5007 15.7001 19.6142 15.426C19.7277 15.1519 19.92 14.9176 20.1666 14.7528C20.4133 14.588 20.7033 14.5 21 14.5C21.3978 14.5 21.7794 14.658 22.0607 14.9393C22.342 15.2206 22.5 15.6022 22.5 16ZM21.9312 20.9112C21.7116 22.3273 20.9932 23.6182 19.9057 24.5513C18.8181 25.4844 17.433 25.9982 16 26H13C11.4092 25.9983 9.88405 25.3657 8.75919 24.2408C7.63433 23.116 7.00165 21.5908 7 20V14.9363C5.06691 14.6927 3.28915 13.7521 2.00033 12.2909C0.711515 10.8297 0.000244506 8.94837 0 7V2C0 1.46957 0.210714 0.960859 0.585786 0.585786C0.960859 0.210714 1.46957 0 2 0H4C4.26522 0 4.51957 0.105357 4.70711 0.292893C4.89464 0.48043 5 0.734784 5 1C5 1.26522 4.89464 1.51957 4.70711 1.70711C4.51957 1.89464 4.26522 2 4 2H2V7C1.99993 7.79471 2.15773 8.58151 2.46425 9.31473C2.77077 10.0479 3.2199 10.713 3.78555 11.2712C4.3512 11.8294 5.02211 12.2697 5.75932 12.5664C6.49654 12.8632 7.28536 13.0106 8.08 13C11.3438 12.9575 14 10.2188 14 6.89625V2H12C11.7348 2 11.4804 1.89464 11.2929 1.70711C11.1054 1.51957 11 1.26522 11 1C11 0.734784 11.1054 0.48043 11.2929 0.292893C11.4804 0.105357 11.7348 0 12 0H14C14.5304 0 15.0391 0.210714 15.4142 0.585786C15.7893 0.960859 16 1.46957 16 2V6.89625C16 11.0012 12.9338 14.4325 9 14.935V20C9 21.0609 9.42143 22.0783 10.1716 22.8284C10.9217 23.5786 11.9391 24 13 24H16C16.9084 23.9985 17.7893 23.6884 18.4983 23.1207C19.2074 22.5529 19.7025 21.7611 19.9025 20.875C18.6948 20.6037 17.6306 19.8941 16.916 18.8835C16.2013 17.8729 15.8869 16.6331 16.0336 15.404C16.1803 14.1749 16.7776 13.0439 17.7101 12.2299C18.6426 11.4159 19.8439 10.9767 21.0815 10.9972C22.3191 11.0178 23.5051 11.4968 24.41 12.3414C25.3149 13.186 25.8743 14.3362 25.98 15.5694C26.0858 16.8027 25.7303 18.0314 24.9824 19.0177C24.2345 20.004 23.1473 20.6778 21.9312 20.9088V20.9112ZM24 16C24 15.4067 23.8241 14.8266 23.4944 14.3333C23.1648 13.8399 22.6962 13.4554 22.1481 13.2284C21.5999 13.0013 20.9967 12.9419 20.4147 13.0576C19.8328 13.1734 19.2982 13.4591 18.8787 13.8787C18.4591 14.2982 18.1734 14.8328 18.0576 15.4147C17.9419 15.9967 18.0013 16.5999 18.2284 17.1481C18.4554 17.6962 18.8399 18.1648 19.3333 18.4944C19.8266 18.8241 20.4067 19 21 19C21.7956 19 22.5587 18.6839 23.1213 18.1213C23.6839 17.5587 24 16.7956 24 16Z" fill="#128D61"/>
</svg>
