<svg width="28" height="24" viewBox="0 0 28 24" fill="none" xmlns="http://www.w3.org/2000/svg">
<path d="M7 13H2C1.73478 13 1.48043 12.8946 1.29289 12.7071C1.10536 12.5196 1 12.2652 1 12C1 11.7348 1.10536 11.4804 1.29289 11.2929C1.48043 11.1054 1.73478 11 2 11H6.465L8.1675 8.445C8.25878 8.30783 8.38255 8.19535 8.52778 8.11754C8.67302 8.03974 8.83523 7.99903 9 7.99903C9.16477 7.99903 9.32698 8.03974 9.47222 8.11754C9.61745 8.19535 9.74122 8.30783 9.8325 8.445L13 13.195L14.1675 11.445C14.2589 11.308 14.3827 11.1957 14.5279 11.1181C14.6732 11.0405 14.8353 10.9999 15 11H18C18.2652 11 18.5196 11.1054 18.7071 11.2929C18.8946 11.4804 19 11.7348 19 12C19 12.2652 18.8946 12.5196 18.7071 12.7071C18.5196 12.8946 18.2652 13 18 13H15.535L13.8325 15.555C13.7412 15.6922 13.6175 15.8047 13.4722 15.8825C13.327 15.9603 13.1648 16.001 13 16.001C12.8352 16.001 12.673 15.9603 12.5278 15.8825C12.3825 15.8047 12.2588 15.6922 12.1675 15.555L9 10.8025L7.8325 12.5525C7.74139 12.6899 7.6177 12.8027 7.47246 12.8808C7.32721 12.9589 7.1649 12.9998 7 13ZM20.25 0C17.6688 0 15.4088 1.11 14 2.98625C12.5912 1.11 10.3313 0 7.75 0C5.69528 0.00231592 3.72539 0.819575 2.27248 2.27248C0.819575 3.72539 0.00231592 5.69528 0 7.75C0 7.84375 0 7.9375 0 8.03125C0.00828802 8.29647 0.121593 8.54753 0.31499 8.7292C0.508387 8.91088 0.766034 9.00829 1.03125 9C1.29647 8.99171 1.54753 8.87841 1.7292 8.68501C1.91088 8.49161 2.00829 8.23397 2 7.96875C2 7.89625 2 7.8225 2 7.75C2.00198 6.22561 2.60842 4.76423 3.68633 3.68633C4.76423 2.60842 6.22561 2.00198 7.75 2C10.1812 2 12.2225 3.295 13.075 5.375C13.1503 5.55841 13.2785 5.71528 13.4432 5.82569C13.6079 5.93609 13.8017 5.99503 14 5.99503C14.1983 5.99503 14.3921 5.93609 14.5568 5.82569C14.7215 5.71528 14.8497 5.55841 14.925 5.375C15.7775 3.29125 17.8188 2 20.25 2C21.7744 2.00198 23.2358 2.60842 24.3137 3.68633C25.3916 4.76423 25.998 6.22561 26 7.75C26 14.4513 16.28 20.5188 14 21.85C12.6462 21.0613 8.67125 18.6 5.665 15.3237C5.48565 15.1282 5.23594 15.0118 4.97081 15.0003C4.70568 14.9888 4.44685 15.0831 4.25125 15.2625C4.05565 15.4419 3.93931 15.6916 3.92783 15.9567C3.91634 16.2218 4.01065 16.4807 4.19 16.6763C8.08625 20.9263 13.3062 23.7612 13.5262 23.88C13.6719 23.9583 13.8346 23.9993 14 23.9993C14.1654 23.9993 14.3281 23.9583 14.4737 23.88C15.0262 23.5825 28 16.5 28 7.75C27.9977 5.69528 27.1804 3.72539 25.7275 2.27248C24.2746 0.819575 22.3047 0.00231592 20.25 0Z" fill="#128D61"/>
</svg>
